<?xml version="1.0" encoding="utf-8"?>
<!-- Generator: Adobe Illustrator 24.0.0, SVG Export Plug-In . SVG Version: 6.00 Build 0)  -->
<svg version="1.1" id="Camada_1" xmlns="http://www.w3.org/2000/svg" xmlns:xlink="http://www.w3.org/1999/xlink" x="0px" y="0px"
	 viewBox="0 0 1882 150" style="enable-background:new 0 0 1882 150;" xml:space="preserve">
<style type="text/css">
	.st0{fill:#FFFFFF;}
</style>
<g>
	<path class="st0" d="M25.26,84.6v34.07H7.84V26.43h75.6c20.96,0,28.96,9.04,28.96,22.27v13.63c0,13.23-7.99,22.27-28.96,22.27
		H25.26z M94.97,48.57c0-5.5-3.67-8.52-11.53-8.52H25.26v30.92h58.18c7.86,0,11.53-3.01,11.53-8.52V48.57z"/>
	<path class="st0" d="M212.24,118.67l-21.62-41.14h-48.61v41.14h-17.43V26.43h78.35c20.96,0,28.96,9.04,28.96,22.27v6.55
		c0,11.92-6.42,20.44-22.8,22.01l21.75,41.4H212.24z M214.46,48.57c0-5.5-3.67-8.52-11.53-8.52h-60.93V63.9h60.93
		c7.86,0,11.53-3.01,11.53-8.52V48.57z"/>
	<path class="st0" d="M274.21,118.67c-20.96,0-28.96-9.04-28.96-22.27V48.7c0-13.23,7.99-22.27,28.96-22.27h60.93
		c20.96,0,28.96,9.04,28.96,22.27V96.4c0,13.23-7.99,22.27-28.96,22.27H274.21z M346.67,48.57c0-5.5-3.67-8.52-11.53-8.52h-60.93
		c-7.86,0-11.53,3.01-11.53,8.52v47.96c0,5.5,3.67,8.52,11.53,8.52h60.93c7.86,0,11.53-3.01,11.53-8.52V48.57z M287.18,19.75V8.87
		l42.85-9.04v14.81L287.18,19.75z"/>
	<path class="st0" d="M471.54,118.67L430.4,81.85l-40.88,36.82h-22.8l52.67-46.12l-52.67-46.12h22.67l41.01,36.95l41.01-36.95h22.41
		L441.53,71.9l52.54,46.78H471.54z"/>
	<path class="st0" d="M504.82,118.67V26.43h17.43v92.24H504.82z"/>
	<path class="st0" d="M664.27,118.67v-64.6l-46.91,64.6h-14.28l-47.04-64.47v64.47h-16.12V26.43h16.25l54.77,75.34l54.51-75.34
		h14.94v92.24H664.27z"/>
	<path class="st0" d="M725.72,118.67c-20.96,0-28.96-9.04-28.96-22.27V48.7c0-13.23,7.99-22.27,28.96-22.27h60.93
		c20.96,0,28.96,9.04,28.96,22.27V96.4c0,13.23-7.99,22.27-28.96,22.27H725.72z M798.18,48.57c0-5.5-3.67-8.52-11.53-8.52h-60.93
		c-7.86,0-11.53,3.01-11.53,8.52v47.96c0,5.5,3.67,8.52,11.53,8.52h60.93c7.86,0,11.53-3.01,11.53-8.52V48.57z"/>
	<path class="st0" d="M833.16,118.67v-13.63h80.19c7.86,0,11.53-3.01,11.53-8.52V84.87c0-5.5-3.67-8.52-11.53-8.52h-54.25
		c-20.96,0-28.96-9.04-28.96-22.27V48.7c0-13.23,7.99-22.27,28.96-22.27h78.09v13.63h-78.09c-7.86,0-11.53,3.01-11.53,8.52v5.63
		c0,5.5,3.67,8.52,11.53,8.52h54.25c20.96,0,28.96,9.04,28.96,22.27v11.4c0,13.23-7.99,22.27-28.96,22.27H833.16z"/>
	<path class="st0" d="M1022.1,118.67V26.43h94.86v13.63h-77.44v23.06h73.51v13.63h-73.51v28.3h77.44v13.63H1022.1z"/>
	<path class="st0" d="M1184.57,118.67l-61.32-92.24h19.79l48.22,74.29l47.69-74.29h19.26l-60.93,92.24H1184.57z"/>
	<path class="st0" d="M1266.73,118.67V26.43h94.86v13.63h-77.44v23.06h73.51v13.63h-73.51v28.3h77.44v13.63H1266.73z"/>
	<path class="st0" d="M1489.99,118.67l-98.4-71.8v71.8h-15.2V26.43h15.07l91.85,68.53V26.43h15.2v92.24H1489.99z"/>
	<path class="st0" d="M1558.39,118.67V40.06h-48.35V26.43h112.81v13.63h-47.04v78.62H1558.39z"/>
	<path class="st0" d="M1659.15,118.67c-20.96,0-28.96-9.04-28.96-22.27V48.7c0-13.23,7.99-22.27,28.96-22.27h60.93
		c20.96,0,28.96,9.04,28.96,22.27V96.4c0,13.23-7.99,22.27-28.96,22.27H1659.15z M1731.6,48.57c0-5.5-3.67-8.52-11.53-8.52h-60.93
		c-7.86,0-11.53,3.01-11.53,8.52v47.96c0,5.5,3.67,8.52,11.53,8.52h60.93c7.86,0,11.53-3.01,11.53-8.52V48.57z"/>
	<path class="st0" d="M1766.59,118.67v-13.63h80.19c7.86,0,11.53-3.01,11.53-8.52V84.87c0-5.5-3.67-8.52-11.53-8.52h-54.25
		c-20.96,0-28.96-9.04-28.96-22.27V48.7c0-13.23,7.99-22.27,28.96-22.27h78.09v13.63h-78.09c-7.86,0-11.53,3.01-11.53,8.52v5.63
		c0,5.5,3.67,8.52,11.53,8.52h54.25c20.96,0,28.96,9.04,28.96,22.27v11.4c0,13.23-7.99,22.27-28.96,22.27H1766.59z"/>
</g>
</svg>
