<svg width="41" height="41" viewBox="0 0 41 41" fill="none" xmlns="http://www.w3.org/2000/svg">
<path d="M40.3138 19.9083C40.3138 8.92898 31.3849 0 20.4058 0C9.42675 0 0.497924 8.92898 0.497924 19.9083V26.0301C0.179302 27.0853 0 28.2099 0 29.3647C0 35.6756 5.13623 40.8124 11.4475 40.8124H14.4337C14.7124 40.8124 14.9313 40.5934 14.9313 40.3148V18.4151C14.9313 18.1365 14.7124 17.9175 14.4337 17.9175H11.4475C7.18709 17.9175 3.46437 20.2669 1.49312 23.7308V19.9083C1.49312 9.4759 9.97384 0.994858 20.4062 0.994858C30.8384 0.994858 39.3193 9.47573 39.3193 19.9083V23.7308C37.3482 20.2665 33.6255 17.9175 29.3649 17.9175H26.3787C26.1 17.9175 25.8811 18.1365 25.8811 18.4151V40.3148C25.8811 40.5934 26.1 40.8124 26.3787 40.8124H29.3649C35.6756 40.8124 40.8124 35.6761 40.8124 29.3647C40.8124 28.2099 40.6331 27.0853 40.3148 26.0301L40.3138 19.9083ZM11.9446 18.9127H13.9353V39.8167H11.9446V18.9127ZM10.9494 18.9427V39.7972C5.41488 39.5382 0.995004 34.9695 0.995004 29.3751C0.995004 23.7805 5.41471 19.2012 10.9494 18.9427ZM28.8668 39.8168H26.8761V18.9128H28.8668V39.8168ZM29.862 39.7868V18.9426C35.3965 19.2015 39.8163 23.7703 39.8163 29.3647C39.8163 34.9591 35.3966 39.5283 29.862 39.7868Z" fill="white"/>
</svg>
