<?xml version="1.0" encoding="utf-8"?>
<!-- Generator: Adobe Illustrator 24.0.0, SVG Export Plug-In . SVG Version: 6.00 Build 0)  -->
<svg version="1.1" id="Camada_1" xmlns="http://www.w3.org/2000/svg" xmlns:xlink="http://www.w3.org/1999/xlink" x="0px" y="0px"
	 viewBox="0 0 1882 150" style="enable-background:new 0 0 1882 150;" xml:space="preserve">
<style type="text/css">
	.st0{fill:#FFFFFF;}
</style>
<g>
	<path class="st0" d="M88.8,132.5C62.9,132.5,53,121.3,53,105V18.5h21.5v86.6c0,6.8,4.5,10.5,14.2,10.5h70.7
		c9.7,0,14.2-3.7,14.2-10.5V18.5h21.5V105c0,16.4-5.3,27.5-31.2,27.5H88.8z"/>
	<path class="st0" d="M215.9,132.5v-114h21.7v97.1H330v16.8H215.9z"/>
	<path class="st0" d="M362.5,132.5V35.4h-59.7V18.5h139.4v16.8h-58.1v97.1H362.5z"/>
	<path class="st0" d="M457.4,132.5v-114h21.5v114H457.4z"/>
	<path class="st0" d="M654.4,132.5V52.7l-58,79.8h-17.6l-58.1-79.7v79.7h-19.9v-114h20.1l67.7,93.1l67.3-93.1h18.5v114H654.4z"/>
	<path class="st0" d="M730.3,132.5c-25.9,0-35.8-11.2-35.8-27.5V46c0-16.4,9.9-27.5,35.8-27.5h75.3c25.9,0,35.8,11.2,35.8,27.5V105
		c0,16.4-9.9,27.5-35.8,27.5H730.3z M819.9,45.9c0-6.8-4.5-10.5-14.2-10.5h-75.3c-9.7,0-14.2,3.7-14.2,10.5v59.3
		c0,6.8,4.5,10.5,14.2,10.5h75.3c9.7,0,14.2-3.7,14.2-10.5V45.9z"/>
	<path class="st0" d="M863.1,132.5v-16.8h99.1c9.7,0,14.2-3.7,14.2-10.5V90.7c0-6.8-4.5-10.5-14.2-10.5h-67
		c-25.9,0-35.8-11.2-35.8-27.5V46c0-16.4,9.9-27.5,35.8-27.5h96.5v16.8h-96.5c-9.7,0-14.2,3.7-14.2,10.5v7c0,6.8,4.5,10.5,14.2,10.5
		h67c25.9,0,35.8,11.2,35.8,27.5V105c0,16.4-9.9,27.5-35.8,27.5H863.1z"/>
	<path class="st0" d="M1118,90.4v42.1h-21.5v-114h93.4c25.9,0,35.8,11.2,35.8,27.5v16.8c0,16.4-9.9,27.5-35.8,27.5H1118z
		 M1204.2,45.9c0-6.8-4.5-10.5-14.2-10.5H1118v38.2h71.9c9.7,0,14.2-3.7,14.2-10.5V45.9z"/>
	<path class="st0" d="M1275.7,132.5c-25.9,0-35.8-11.2-35.8-27.5V46c0-16.4,9.9-27.5,35.8-27.5h75.3c25.9,0,35.8,11.2,35.8,27.5V105
		c0,16.4-9.9,27.5-35.8,27.5H1275.7z M1365.2,45.9c0-6.8-4.5-10.5-14.2-10.5h-75.3c-9.7,0-14.2,3.7-14.2,10.5v59.3
		c0,6.8,4.5,10.5,14.2,10.5h75.3c9.7,0,14.2-3.7,14.2-10.5V45.9z"/>
	<path class="st0" d="M1408.4,132.5v-16.8h99.1c9.7,0,14.2-3.7,14.2-10.5V90.7c0-6.8-4.5-10.5-14.2-10.5h-67
		c-25.9,0-35.8-11.2-35.8-27.5V46c0-16.4,9.9-27.5,35.8-27.5h96.5v16.8h-96.5c-9.7,0-14.2,3.7-14.2,10.5v7c0,6.8,4.5,10.5,14.2,10.5
		h67c25.9,0,35.8,11.2,35.8,27.5V105c0,16.4-9.9,27.5-35.8,27.5H1408.4z"/>
	<path class="st0" d="M1610.1,132.5V35.4h-59.7V18.5h139.4v16.8h-58.1v97.1H1610.1z"/>
	<path class="st0" d="M1701.1,132.5v-16.8h99.1c9.7,0,14.2-3.7,14.2-10.5V90.7c0-6.8-4.5-10.5-14.2-10.5h-67
		c-25.9,0-35.8-11.2-35.8-27.5V46c0-16.4,9.9-27.5,35.8-27.5h96.5v16.8h-96.5c-9.7,0-14.2,3.7-14.2,10.5v7c0,6.8,4.5,10.5,14.2,10.5
		h67c25.9,0,35.8,11.2,35.8,27.5V105c0,16.4-9.9,27.5-35.8,27.5H1701.1z"/>
</g>
</svg>
