<svg width="69" height="69" viewBox="0 0 69 69" fill="none" xmlns="http://www.w3.org/2000/svg">
<circle cx="34.5" cy="34.5" r="34" stroke="#CDCDCD"/>
<path d="M37.4687 34.885L51.9999 20.1319C53.4986 18.6104 53.4986 16.0963 51.9999 14.5748C50.5013 13.0533 48.025 13.0533 46.5264 14.5748L34.7972 26.4831L23.068 14.5748C21.5693 13.0533 19.093 13.0533 17.5944 14.5748C16.8126 15.3685 16.4867 16.3611 16.4867 17.3534C16.4867 18.3456 16.8776 19.4042 17.5944 20.132L32.1256 34.8851C33.4943 36.4071 35.9706 36.4071 37.4692 34.8851L37.4687 34.885Z" fill="#CDCDCD"/>
<path d="M37.4965 54.4359L52.0019 39.7205C53.4979 38.2029 53.4979 35.6953 52.0019 34.1776C50.506 32.66 48.0341 32.66 46.5381 34.1776L34.8297 46.0555L23.0563 34.1117C21.5603 32.594 19.0884 32.594 17.5925 34.1117C16.812 34.9034 16.4867 35.8935 16.4867 36.8832C16.4867 37.8728 16.8769 38.9287 17.5925 39.6547L32.0979 54.3701C33.5289 55.9539 36.0009 55.9539 37.4967 54.4364L37.4965 54.4359Z" fill="#CDCDCD"/>
</svg>
