<svg width="42" height="41" viewBox="0 0 42 41" fill="none" xmlns="http://www.w3.org/2000/svg">
<path d="M5.85479 8.46721e-05C3.05177 8.46721e-05 0.76416 2.28767 0.76416 5.09083C0.76416 7.89392 3.05169 10.1816 5.85479 10.1816C7.00294 10.1816 8.06472 9.79675 8.91829 9.1509L15.6251 15.8579C14.5162 17.1421 13.844 18.8137 13.844 20.638C13.844 22.3444 14.4327 23.9167 15.4163 25.1638L7.21428 33.366C6.54674 32.8938 5.73408 32.6155 4.85855 32.6155C2.604 32.6152 0.76408 34.4592 0.764401 36.7139C0.764087 38.9685 2.604 40.8125 4.85855 40.8122C7.11311 40.8125 8.95713 38.9685 8.95681 36.7139C8.95681 35.8399 8.67974 35.0281 8.20916 34.3609L16.3878 26.1804C17.672 27.2894 19.3436 27.9616 21.1678 27.9616C22.992 27.9616 24.6635 27.2893 25.9478 26.1804L32.4278 32.6565C32.4218 32.6644 32.4159 32.6719 32.4099 32.6801C31.7738 33.5298 31.3956 34.5841 31.3956 35.7229C31.3956 37.0807 31.9324 38.3171 32.8042 39.2316C32.8325 39.2611 32.8604 39.2894 32.8893 39.3183C33.7538 40.1828 34.9268 40.7405 36.2249 40.8067C36.3113 40.8111 36.3983 40.8124 36.4859 40.8124C39.2889 40.8124 41.5766 38.5263 41.5766 35.7229C41.5766 32.9198 39.289 30.6322 36.4859 30.6322C35.3362 30.6322 34.2737 31.0158 33.4196 31.6629L26.921 25.1647C27.9052 23.9176 28.492 22.3444 28.492 20.6376C28.492 18.8133 27.8213 17.1418 26.7121 15.8575L29.6697 12.8986C30.3249 13.3437 31.1144 13.6035 31.9622 13.6035C34.2165 13.6035 36.0605 11.7594 36.0605 9.50516C36.0605 8.16654 35.4099 6.97373 34.4101 6.22453C34.3309 6.16516 34.2489 6.10924 34.1653 6.05552C34.1101 6.02002 34.0545 5.98515 33.9976 5.95248H33.9963C33.9395 5.91981 33.8829 5.88777 33.8245 5.85761H33.8232C33.7943 5.84284 33.7648 5.82651 33.7353 5.81237H33.734C33.6747 5.78378 33.6147 5.75583 33.554 5.72975H33.5528C33.5226 5.71687 33.4925 5.70462 33.462 5.69269H33.4607C33.4303 5.68043 33.3995 5.66818 33.3687 5.65687H33.3674C33.3366 5.64556 33.3052 5.63457 33.2738 5.62389H33.2726C32.861 5.48378 32.4206 5.40681 31.9629 5.40681C31.5404 5.40681 31.1324 5.47216 30.7482 5.59248C30.62 5.63269 30.494 5.67792 30.3715 5.73007C30.3414 5.74295 30.3106 5.75771 30.2808 5.77122C30.2201 5.79855 30.1595 5.82745 30.1007 5.85792C30.0423 5.88808 29.9845 5.91981 29.9277 5.9528C29.8705 5.98578 29.8139 6.02034 29.7587 6.05583C29.6478 6.12714 29.5403 6.20254 29.437 6.2839C29.3855 6.32442 29.3339 6.36715 29.2843 6.41018C29.2598 6.43155 29.2356 6.45291 29.2114 6.4749C29.163 6.51888 29.1159 6.56475 29.0698 6.61092C28.8605 6.82015 28.6736 7.05104 28.5131 7.30078C28.4776 7.35639 28.443 7.41262 28.4101 7.4698C28.3771 7.52697 28.3454 7.5854 28.3152 7.64446C28.285 7.70321 28.2561 7.76259 28.2285 7.82322C28.2012 7.88385 28.1748 7.94542 28.1503 8.00731C28.138 8.03841 28.1261 8.06951 28.1145 8.10093C28.0912 8.16376 28.0699 8.22659 28.0497 8.29068C28.0397 8.32272 28.03 8.35445 28.0208 8.3868C28.0026 8.45152 27.9853 8.51749 27.97 8.58346C27.9392 8.71539 27.9147 8.84985 27.8971 8.98619C27.8927 9.02043 27.8895 9.05342 27.8861 9.08797C27.8719 9.22556 27.8644 9.36442 27.8641 9.50578C27.8641 9.82276 27.9012 10.1312 27.97 10.4281V10.4294C27.9929 10.5277 28.0196 10.6251 28.0497 10.7206V10.7219C28.0997 10.8814 28.1588 11.0373 28.2269 11.1877L28.2282 11.189C28.2555 11.249 28.2835 11.3081 28.3133 11.3662L28.3146 11.3674C28.3293 11.3963 28.3444 11.4255 28.3598 11.4541C28.3689 11.4705 28.378 11.4871 28.3874 11.5035C28.3944 11.5157 28.401 11.5283 28.4079 11.5405L28.4091 11.5418C28.4255 11.5697 28.4418 11.598 28.4584 11.6257C28.4694 11.6436 28.4801 11.6615 28.4914 11.6794C28.4977 11.6894 28.5043 11.6995 28.5106 11.7095L28.5118 11.7108C28.5294 11.7378 28.5473 11.7651 28.5656 11.7918V11.7931C28.5951 11.8368 28.6252 11.8798 28.6563 11.9222L25.6947 14.884C24.4478 13.9007 22.8744 13.3136 21.1676 13.3136C19.4612 13.3136 17.8889 13.9007 16.6418 14.8846L9.9158 8.15432C10.562 7.30081 10.9453 6.23932 10.9453 5.09075C10.9453 2.28766 8.65789 8.46721e-05 5.85479 8.46721e-05ZM5.85479 1.40746C7.89728 1.40746 9.53808 3.04821 9.53808 5.09083C9.53808 6.08733 9.14698 6.98733 8.50992 7.64863C8.49201 7.66246 8.47442 7.67722 8.45777 7.69261C8.44175 7.70958 8.42667 7.72748 8.41254 7.74633C7.75127 8.38342 6.85127 8.77299 5.8548 8.77299C3.8123 8.77299 2.17279 7.13344 2.17279 5.0909C2.17279 3.04836 3.8123 1.40746 5.85479 1.40746ZM31.9622 6.81418C32.4287 6.81418 32.8659 6.9323 33.2473 7.13837H33.2485C33.2862 7.15879 33.3233 7.18078 33.3597 7.20309H33.361C33.3977 7.22539 33.4342 7.24801 33.4697 7.27189C33.5413 7.31995 33.6095 7.37241 33.6757 7.42708H33.677C33.71 7.45409 33.7417 7.48237 33.7731 7.51096H33.7744C33.8535 7.58289 33.9283 7.66081 33.9984 7.74185C34.0263 7.77421 34.0543 7.80688 34.0807 7.84081C34.1071 7.87443 34.1328 7.90898 34.1576 7.94385C34.1705 7.96175 34.1824 7.97935 34.1947 7.99757C34.2911 8.1405 34.3744 8.29412 34.4422 8.45528C34.4762 8.5357 34.5054 8.61831 34.5315 8.70282C34.5381 8.72387 34.5447 8.7446 34.5506 8.76596C34.5626 8.80869 34.5736 8.85173 34.5836 8.89508C34.5886 8.91676 34.593 8.93906 34.5974 8.96105C34.6065 9.00503 34.6138 9.04964 34.621 9.09424C34.6414 9.22839 34.6524 9.36504 34.6527 9.50515C34.6527 9.62201 34.6449 9.73762 34.6307 9.85009C34.6251 9.89501 34.6194 9.93899 34.6116 9.98328C34.5959 10.0719 34.5751 10.1592 34.5509 10.2443C34.4548 10.5855 34.2937 10.899 34.081 11.1692C33.5897 11.7934 32.8251 12.1904 31.9618 12.1904C31.2813 12.1904 30.6625 11.9426 30.1904 11.532C30.17 11.5044 30.1476 11.4786 30.1235 11.4541C30.0911 11.422 30.0556 11.3931 30.0176 11.3677C29.972 11.3203 29.9265 11.2716 29.8844 11.2207L29.8831 11.2182C29.8696 11.2018 29.8564 11.1868 29.8433 11.1701V11.1689C29.8304 11.1525 29.8175 11.1362 29.8046 11.1195V11.1183C29.7917 11.1013 29.7782 11.0847 29.766 11.0674V11.0661C29.7537 11.0488 29.7408 11.0316 29.7289 11.014V11.0127C29.717 10.9951 29.7047 10.9785 29.6931 10.9606V10.9593C29.6818 10.9414 29.6695 10.9238 29.6588 10.9056V10.9043C29.6479 10.8861 29.6365 10.8679 29.6259 10.8494V10.8481C29.6152 10.8299 29.6042 10.8117 29.5941 10.7931V10.7919C29.5841 10.7733 29.5737 10.7545 29.564 10.7356V10.7344C29.5345 10.6769 29.5068 10.6185 29.4814 10.5585V10.5572C29.4647 10.5173 29.4481 10.4771 29.4333 10.4363V10.435C29.4185 10.3942 29.405 10.353 29.3922 10.3112V10.31C29.3139 10.0571 29.2712 9.78755 29.2712 9.50733C29.2712 9.48377 29.2722 9.46052 29.2725 9.43727C29.2797 9.15895 29.3284 8.89192 29.4126 8.64155C29.4968 8.39117 29.6161 8.15839 29.7657 7.9476V7.94634C29.7779 7.92907 29.7914 7.91242 29.8043 7.89545V7.89419C29.8297 7.85995 29.8568 7.82665 29.8841 7.79398C29.9523 7.71136 30.0251 7.63157 30.1027 7.55774C30.1338 7.52821 30.1665 7.49931 30.1989 7.47104C30.2149 7.45722 30.2306 7.4434 30.2469 7.42989C30.2633 7.41638 30.2809 7.40193 30.2978 7.38874C30.3145 7.37586 30.3317 7.36298 30.3487 7.3501C30.3833 7.32434 30.4188 7.29858 30.4546 7.27439C30.4901 7.25051 30.5265 7.22789 30.5633 7.20559C30.5818 7.19428 30.601 7.18328 30.6195 7.1726C30.6377 7.16192 30.6572 7.15093 30.6757 7.14087C30.7137 7.12014 30.7533 7.10066 30.7926 7.08181C31.0671 6.95019 31.3681 6.86222 31.686 6.83018C31.7086 6.82798 31.7318 6.82641 31.7548 6.82453C31.8232 6.8195 31.8923 6.81636 31.9624 6.81636L31.9622 6.81418ZM21.1683 14.7209C22.7091 14.7209 24.1095 15.3055 25.1607 16.2659C25.1817 16.2948 25.2056 16.3218 25.2311 16.3469C25.2615 16.3764 25.2945 16.4031 25.33 16.4267C26.4144 17.4982 27.0851 18.9876 27.0851 20.6378C27.0851 22.1686 26.5083 23.5597 25.5596 24.6083C25.5216 24.6337 25.4858 24.6626 25.4534 24.695C25.4157 24.7339 25.3824 24.7773 25.3545 24.8241C24.2848 25.8938 22.8059 26.5544 21.1682 26.5544C19.5237 26.5544 18.0391 25.8881 16.9682 24.8103L16.9669 24.809C16.9408 24.7694 16.911 24.7327 16.8774 24.6991C16.8557 24.6789 16.8328 24.6601 16.8089 24.6428C15.8417 23.5901 15.2517 22.185 15.2517 20.6378C15.2517 19.0001 15.9124 17.5211 16.982 16.4514C17.0288 16.4235 17.0722 16.3902 17.1112 16.3525C17.1438 16.3195 17.1734 16.2837 17.1991 16.245C18.2477 15.297 19.6384 14.7209 21.1683 14.7209ZM36.4866 32.0396C37.1249 32.0396 37.7236 32.1995 38.2457 32.4822C39.3939 33.1039 40.1698 34.3187 40.1698 35.723C40.1698 37.7335 38.5806 39.3536 36.5827 39.4035C36.551 39.4045 36.5183 39.4048 36.4866 39.4048C36.4546 39.4048 36.4235 39.4042 36.3917 39.4035C36.36 39.4026 36.3283 39.4023 36.2969 39.401C34.7846 39.325 33.5196 38.3473 33.0257 36.9918C33.0154 36.9636 33.0066 36.9353 32.9968 36.9067C32.8718 36.5354 32.803 36.1383 32.803 35.7233C32.803 35.6913 32.8036 35.6589 32.8043 35.6272C32.8146 35.215 32.8919 34.8205 33.0254 34.4535C33.0358 34.4252 33.0461 34.3963 33.0571 34.3684C33.3527 33.6147 33.8896 32.9849 34.5732 32.5708C34.6238 32.54 34.675 32.5111 34.7271 32.4828C35.2492 32.2001 35.8483 32.0396 36.4866 32.0396ZM4.78843 34.0244C4.81167 34.0238 4.83524 34.0244 4.85848 34.0244C5.59985 34.0244 6.26743 34.3188 6.75244 34.7981C6.75652 34.8032 6.76061 34.8085 6.76501 34.8135C6.77003 34.8176 6.77506 34.822 6.78008 34.8261C7.25632 35.3108 7.54847 35.9759 7.54847 36.7144C7.54847 38.2085 6.35287 39.4057 4.85884 39.4054C3.36481 39.4054 2.17323 38.2085 2.17323 36.7144C2.17323 35.2436 3.32713 34.0608 4.78843 34.0244Z" fill="white"/>
</svg>
